<svg xmlns="http://www.w3.org/2000/svg" viewBox="0 0 1440 320">
  <defs>
    <linearGradient id="grad-light" x1="0%" y1="0%" x2="100%" y2="100%">
      <stop offset="0%" stop-color="#e0f2fe"/>
      <stop offset="100%" stop-color="#93c5fd"/>
    </linearGradient>
  </defs>
  <path fill="url(#grad-light)" fill-opacity="1" d="M0,160L40,154.7C80,149,160,139,240,154.7C320,171,400,213,480,208C560,203,640,149,720,138.7C800,128,880,160,960,170.7C1040,181,1120,171,1200,170.7C1280,171,1360,181,1400,186.7L1440,192L1440,0L1400,0C1360,0,1280,0,1200,0C1120,0,1040,0,960,0C880,0,800,0,720,0C640,0,560,0,480,0C400,0,320,0,240,0C160,0,80,0,40,0L0,0Z"/>
</svg>
